<?xml version="1.0" encoding="UTF-8" ?>
<!DOCTYPE svg PUBLIC "-//W3C//DTD SVG 1.1//EN" "http://www.w3.org/Graphics/SVG/1.1/DTD/svg11.dtd">
<svg width="377pt" height="173pt" viewBox="0 0 377 173" version="1.1" xmlns="http://www.w3.org/2000/svg">
<path fill="#ffffff" d=" M 0.00 0.00 L 377.00 0.00 L 377.00 173.00 L 0.00 173.00 L 0.00 0.00 Z" />
<path fill="#020202" d=" M 79.16 16.40 C 79.24 17.72 79.34 19.03 79.49 20.34 C 79.60 19.38 79.80 17.46 79.90 16.51 C 82.71 18.68 81.25 22.15 81.27 25.03 C 80.59 25.03 79.24 25.01 78.56 25.01 C 78.96 22.69 78.66 20.62 76.28 19.65 C 77.24 18.57 78.20 17.49 79.16 16.40 Z" />
<path fill="#020202" d=" M 63.80 28.10 C 64.39 24.56 67.27 20.99 71.10 21.04 C 74.09 21.43 73.89 25.06 74.85 27.19 C 75.40 26.60 76.50 25.41 77.05 24.82 C 77.44 25.36 78.22 26.43 78.61 26.97 C 80.84 26.56 83.10 25.13 85.22 26.79 C 85.68 24.88 85.47 21.72 88.01 21.24 C 89.87 20.48 91.58 22.01 93.24 22.64 C 94.90 25.42 96.69 28.35 96.55 31.73 L 95.85 31.99 L 95.25 31.95 C 94.13 28.39 93.81 23.92 89.90 22.15 C 92.43 25.25 94.08 28.90 93.94 32.97 C 91.32 31.19 92.67 27.08 90.01 25.47 C 90.65 27.86 91.16 30.24 90.84 32.75 C 91.28 32.96 92.15 33.38 92.59 33.59 C 91.10 37.20 90.65 41.14 89.99 44.97 C 91.35 42.62 91.75 39.89 92.68 37.37 C 93.38 39.29 93.42 41.33 93.54 43.35 C 93.88 43.52 94.56 43.88 94.91 44.06 C 96.00 45.55 93.57 47.43 93.40 48.96 C 93.92 49.54 94.45 50.12 94.98 50.71 C 95.78 47.94 96.73 45.21 97.32 42.38 L 96.40 42.42 C 96.09 42.51 95.47 42.69 95.16 42.78 C 93.29 40.22 95.22 36.31 95.18 33.26 C 95.51 33.22 96.15 33.14 96.48 33.10 C 96.75 35.90 96.64 38.73 96.17 41.51 C 96.98 41.87 98.60 42.58 99.40 42.94 C 97.37 37.89 97.48 31.71 101.08 27.40 C 102.99 25.14 106.02 25.38 108.67 25.53 C 110.13 27.00 112.03 28.58 111.30 30.93 C 111.13 33.58 108.00 33.60 106.06 33.89 C 108.70 37.71 111.65 41.55 111.81 46.42 C 113.00 42.74 115.19 39.35 119.06 38.16 C 118.86 41.49 120.24 44.53 121.23 47.63 C 123.61 47.28 126.01 47.08 128.41 46.85 C 128.52 50.36 126.46 53.17 124.41 55.82 C 126.86 55.28 129.36 54.12 131.74 55.55 C 132.49 57.63 132.59 59.85 131.93 61.99 C 130.72 59.90 130.88 57.39 130.13 55.15 C 129.62 56.04 128.60 57.81 128.10 58.70 C 126.22 57.35 124.36 55.97 122.26 54.98 C 125.19 53.54 126.70 50.66 127.35 47.59 C 125.54 47.85 123.75 48.16 121.95 48.43 C 121.79 49.05 121.46 50.30 121.30 50.93 C 122.38 50.35 124.54 49.18 125.62 48.60 C 122.66 50.46 120.63 54.24 117.09 54.80 C 120.42 55.46 123.41 57.16 126.11 59.18 C 126.79 59.23 128.14 59.34 128.82 59.39 L 128.91 60.08 L 125.66 60.28 L 127.52 62.50 L 130.58 60.21 C 130.48 60.85 130.27 62.13 130.17 62.77 C 128.06 62.86 125.89 62.84 123.98 61.80 C 123.53 62.09 123.09 62.39 122.65 62.70 C 125.80 65.18 125.94 69.39 125.64 73.04 C 125.41 77.56 122.76 81.78 123.71 86.38 C 121.92 85.31 120.25 83.84 118.03 83.76 C 119.43 85.36 120.67 87.59 123.13 87.68 C 122.79 88.89 121.48 89.24 120.59 89.93 C 123.46 92.31 127.45 92.53 130.49 90.32 C 129.64 91.18 128.78 92.02 127.92 92.87 C 126.30 92.87 124.68 92.90 123.05 92.94 C 121.46 91.86 119.90 90.75 118.31 89.66 C 119.54 91.77 120.86 94.07 123.12 95.21 C 124.79 95.47 126.50 95.40 128.18 95.46 C 129.87 93.73 131.97 91.76 131.72 89.12 C 131.22 87.47 130.37 85.96 129.62 84.42 C 130.35 88.38 126.76 90.73 123.07 90.13 C 123.55 89.80 124.49 89.15 124.97 88.82 C 125.47 88.67 126.47 88.35 126.98 88.20 C 126.55 87.85 125.69 87.16 125.27 86.82 C 125.10 83.23 129.83 82.76 131.56 85.33 C 133.54 88.63 133.22 94.17 129.21 95.84 C 125.75 98.23 121.05 96.22 118.86 93.07 C 117.05 90.22 117.67 86.68 117.64 83.49 C 118.35 83.70 119.76 84.12 120.47 84.33 C 116.66 80.14 115.19 74.46 116.01 68.91 C 117.99 71.25 116.98 74.44 117.81 77.17 C 118.29 79.94 120.37 81.95 122.11 84.00 C 122.49 77.34 127.46 70.43 122.72 64.15 C 122.72 68.02 123.52 72.12 121.90 75.80 C 121.34 72.03 121.86 68.22 121.65 64.43 C 120.34 68.78 120.31 73.37 119.32 77.78 C 118.86 73.48 119.09 69.11 120.01 64.88 C 119.63 65.52 118.88 66.81 118.50 67.45 L 117.87 67.68 C 119.07 66.01 117.90 64.59 117.22 63.21 C 116.83 64.40 116.06 66.79 115.68 67.98 C 114.28 65.60 115.88 63.34 117.28 61.44 C 115.39 60.83 113.57 60.08 111.78 59.23 C 111.26 57.55 110.73 55.88 110.18 54.22 C 105.79 58.23 100.12 61.44 93.99 61.11 C 90.69 61.17 87.62 59.82 84.49 58.98 C 83.22 60.95 81.64 62.77 80.78 64.98 C 80.53 70.04 80.76 75.12 80.70 80.19 C 83.60 81.17 86.62 81.73 89.68 81.85 C 89.87 84.48 89.61 87.15 90.08 89.76 C 96.85 90.03 103.63 89.76 110.40 89.89 C 110.52 89.35 110.75 88.26 110.87 87.72 C 112.15 87.21 113.43 86.70 114.73 86.23 C 114.48 80.51 112.12 74.85 113.65 69.14 L 113.24 67.61 C 113.98 67.98 114.72 68.33 115.45 68.73 C 112.97 74.71 115.77 81.14 116.01 87.29 C 114.13 87.47 112.07 87.91 111.32 89.90 C 111.81 90.98 112.37 92.02 112.99 93.03 C 113.76 93.05 115.30 93.09 116.06 93.11 C 115.98 98.54 115.22 103.92 114.07 109.21 C 114.71 109.32 116.00 109.53 116.64 109.64 C 120.59 113.14 125.21 117.19 125.25 122.92 C 125.60 126.79 123.49 130.59 119.97 132.28 C 121.40 129.87 122.94 127.53 124.28 125.07 C 124.15 120.81 122.29 116.89 119.75 113.56 L 119.07 113.98 C 121.05 117.19 122.18 120.85 121.96 124.65 C 121.06 122.38 120.38 120.02 119.96 117.62 C 119.34 118.05 118.72 118.49 118.10 118.92 C 118.54 121.95 119.67 124.79 120.66 127.67 C 120.17 129.08 119.73 130.51 119.33 131.95 C 116.60 129.53 115.42 132.40 114.54 134.40 C 113.66 134.57 112.79 134.71 111.91 134.83 C 111.44 133.28 110.59 131.93 109.55 130.72 C 110.84 130.71 113.42 130.70 114.71 130.69 C 113.80 129.71 112.88 128.75 111.95 127.79 C 109.88 128.59 107.70 129.03 105.56 129.54 C 106.37 131.52 107.81 132.19 109.89 131.55 C 109.55 132.02 108.88 132.95 108.55 133.41 C 102.24 136.72 94.18 136.14 88.96 131.07 C 93.04 130.21 96.60 127.40 100.79 127.20 C 100.27 128.96 97.38 128.90 96.10 130.14 C 95.57 130.30 94.52 130.61 94.00 130.76 C 96.95 131.48 99.97 131.89 103.01 132.02 C 101.10 130.52 98.59 130.95 96.36 130.54 C 101.37 129.16 106.45 128.12 111.62 127.60 C 108.57 125.89 104.60 127.66 101.83 126.80 C 103.38 124.90 106.65 125.76 108.81 125.34 C 108.64 124.33 108.34 123.34 108.06 122.36 C 112.23 120.50 113.63 115.94 114.75 111.89 C 113.80 111.43 112.18 109.24 112.55 112.58 C 109.98 120.28 102.51 124.87 95.14 127.19 C 89.94 128.57 85.17 131.16 79.94 132.44 C 81.32 133.00 83.36 132.36 84.27 133.79 L 84.41 134.46 C 79.99 133.96 75.58 134.90 71.19 134.83 C 71.20 134.66 71.23 134.30 71.25 134.12 C 74.11 133.64 76.96 133.09 79.81 132.50 C 74.70 131.08 69.93 128.70 64.83 127.25 C 58.42 125.13 51.82 121.80 48.50 115.60 C 47.16 113.97 46.62 111.84 47.60 109.89 C 49.41 116.15 54.14 121.43 60.11 124.00 C 66.33 126.72 72.93 128.40 79.18 131.03 C 79.21 122.04 79.17 113.04 79.21 104.05 C 76.28 102.74 72.78 101.84 70.93 98.99 C 69.30 96.59 69.21 93.57 69.19 90.77 C 62.75 90.81 56.30 90.79 49.86 90.78 C 49.18 91.84 48.49 92.89 47.79 93.94 C 47.08 94.07 45.68 94.33 44.98 94.46 C 45.36 99.56 45.62 104.73 47.29 109.61 C 46.77 109.59 46.25 109.57 45.73 109.52 C 44.57 104.20 43.83 98.84 43.44 93.41 C 46.25 93.34 48.57 91.90 48.29 88.79 C 46.79 88.21 45.27 87.67 43.74 87.18 C 43.78 82.70 45.32 78.43 45.53 73.98 C 45.51 71.16 44.54 68.46 43.73 65.80 C 42.32 68.42 43.89 71.27 43.65 74.03 C 43.50 79.31 40.23 84.03 35.78 86.71 C 36.97 81.00 33.45 75.69 34.06 69.98 C 33.68 66.04 36.18 62.83 39.22 60.68 C 40.08 62.60 40.61 65.96 43.36 65.78 C 41.92 63.85 41.12 61.66 42.28 59.39 C 43.68 59.35 45.09 59.31 46.49 59.27 C 46.93 57.78 47.34 56.28 47.71 54.78 C 48.50 54.26 49.29 53.74 50.09 53.22 C 53.66 55.78 57.20 58.87 61.73 59.45 C 64.75 60.21 67.82 59.48 70.87 59.34 C 71.10 58.84 71.56 57.82 71.79 57.32 C 70.48 57.73 67.86 58.57 66.54 58.98 C 66.38 57.62 66.04 56.31 65.53 55.04 C 65.54 56.05 65.56 58.09 65.57 59.10 C 62.74 58.93 61.05 56.96 59.94 54.56 L 61.65 54.39 C 61.51 53.84 61.22 52.76 61.08 52.22 C 62.37 51.99 63.64 51.74 64.92 51.46 C 63.22 50.87 60.29 52.28 59.61 49.81 C 60.43 49.85 62.08 49.92 62.91 49.96 C 62.87 49.77 62.79 49.39 62.75 49.20 C 62.32 49.16 61.47 49.07 61.04 49.03 L 59.82 47.26 L 61.88 47.88 L 61.90 47.54 C 61.29 47.10 60.07 46.21 59.46 45.77 C 60.43 45.60 62.36 45.26 63.33 45.08 C 63.50 47.43 64.45 49.58 66.15 51.21 C 65.66 53.18 63.63 53.81 62.03 54.60 L 61.99 55.00 C 64.18 54.76 66.40 54.65 68.58 54.27 C 68.46 55.01 68.21 56.49 68.09 57.23 C 69.74 56.73 68.71 54.44 69.98 54.00 C 71.80 54.82 73.11 56.64 72.35 58.66 C 76.13 54.92 77.73 61.27 79.86 63.38 C 81.36 61.36 82.80 59.29 84.22 57.21 C 88.57 59.18 93.49 60.52 98.26 59.42 C 102.79 58.81 106.31 55.67 109.81 53.01 C 111.78 54.13 112.04 56.34 112.78 58.26 C 114.05 59.42 115.90 59.22 117.44 59.72 C 117.72 60.74 118.27 62.78 118.54 63.80 C 119.50 62.45 120.56 61.19 121.62 59.93 C 119.35 58.73 116.84 57.96 114.72 56.49 C 112.62 53.43 112.00 49.65 111.87 46.02 C 110.69 48.51 110.03 51.97 107.02 52.91 C 104.65 53.80 102.67 55.36 101.00 57.23 C 100.63 55.02 99.15 52.08 101.35 50.38 C 103.75 49.10 101.44 47.82 100.32 46.63 C 100.81 46.21 101.30 45.79 101.81 45.40 C 102.52 46.94 103.43 48.37 104.35 49.79 C 101.96 50.61 100.70 52.38 100.99 54.95 C 102.31 54.10 103.63 53.26 104.96 52.43 L 102.49 51.18 C 103.45 51.17 105.37 51.16 106.33 51.16 C 103.14 44.60 99.85 37.61 101.25 30.10 C 101.77 37.01 103.42 44.01 107.52 49.75 C 108.35 43.92 103.99 39.39 103.03 33.91 C 105.57 38.97 109.15 43.75 108.98 49.73 C 110.35 47.07 110.81 43.67 109.18 41.02 C 107.30 37.19 103.42 33.95 104.23 29.27 C 105.37 29.36 106.51 29.51 107.63 29.74 C 107.24 30.71 106.46 32.64 106.07 33.60 C 107.29 33.07 108.51 32.54 109.72 32.00 C 109.84 31.19 110.06 29.57 110.18 28.75 C 109.42 28.00 108.67 27.25 107.93 26.49 C 106.57 26.48 105.22 26.48 103.86 26.48 C 98.12 30.52 98.95 38.43 100.90 44.28 L 99.29 43.06 C 99.28 44.47 99.26 45.88 99.24 47.29 L 96.49 47.60 C 97.29 47.66 98.89 47.77 99.70 47.83 L 99.60 49.31 C 98.60 49.17 96.58 48.90 95.57 48.76 L 97.15 49.75 C 98.00 49.81 99.71 49.92 100.56 49.98 C 98.88 51.26 96.96 51.82 94.79 51.67 C 95.89 51.90 98.08 52.36 99.18 52.59 C 98.34 53.26 97.48 53.91 96.60 54.52 C 95.30 53.44 94.03 52.33 92.78 51.19 C 92.08 51.76 90.69 52.91 90.00 53.48 C 91.28 50.43 92.56 47.38 93.67 44.26 L 92.67 44.32 C 91.68 47.02 90.31 49.55 88.91 52.06 C 88.71 50.06 88.60 48.06 88.61 46.05 C 88.31 46.17 87.73 46.40 87.43 46.51 C 88.17 44.23 89.02 41.97 89.29 39.57 C 87.65 42.56 86.88 45.97 84.95 48.82 C 85.14 47.65 85.53 45.33 85.72 44.16 C 85.05 44.37 83.71 44.77 83.05 44.98 C 83.42 46.26 83.80 47.55 84.16 48.84 C 85.13 49.25 86.10 49.66 87.07 50.08 C 86.33 50.68 85.59 51.28 84.86 51.88 C 84.33 51.47 83.27 50.66 82.73 50.25 C 79.62 50.74 82.55 52.58 83.18 53.80 C 86.78 51.65 90.22 54.85 93.94 54.75 C 95.86 54.94 97.80 54.80 99.73 54.66 C 98.62 57.35 96.49 59.23 93.41 59.05 C 93.58 58.23 93.94 56.59 94.11 55.77 C 93.43 56.76 92.76 57.77 92.09 58.77 C 89.12 57.81 86.26 56.53 83.23 55.78 C 82.02 57.62 81.19 59.82 79.86 61.66 C 78.90 59.56 76.41 57.61 77.51 55.05 C 78.31 56.10 79.10 57.16 79.87 58.23 C 80.41 57.48 80.96 56.72 81.51 55.97 C 80.49 55.04 79.69 53.93 78.94 52.77 C 79.06 53.67 79.30 55.47 79.42 56.37 C 78.71 55.62 77.29 54.14 76.57 53.39 C 77.02 52.82 77.91 51.66 78.35 51.08 L 76.68 49.81 C 76.32 50.41 75.61 51.61 75.26 52.22 C 75.57 53.61 75.95 55.00 75.99 56.44 C 74.91 56.01 73.86 55.56 72.81 55.06 L 75.50 54.55 C 74.20 54.38 72.96 54.07 71.78 53.52 L 72.74 52.27 C 73.01 51.64 73.55 50.38 73.82 49.75 C 74.56 49.32 75.30 48.90 76.05 48.48 C 75.91 46.57 75.61 44.67 75.29 42.78 C 76.35 43.48 78.48 44.88 79.55 45.58 L 77.25 45.03 C 77.24 46.17 77.22 47.32 77.18 48.47 C 77.78 49.50 78.34 50.57 78.86 51.66 C 79.34 51.60 80.30 51.47 80.78 51.41 C 81.43 49.82 83.28 48.19 82.12 46.35 C 81.30 44.99 80.91 43.43 80.36 41.95 C 80.96 38.90 83.65 40.36 85.66 40.87 C 84.56 41.52 82.36 42.82 81.26 43.47 C 82.45 43.49 84.82 43.54 86.01 43.56 C 87.04 38.38 88.59 32.83 87.03 27.64 C 85.72 28.17 83.89 30.83 86.56 31.48 C 85.36 31.54 82.97 31.67 81.77 31.74 C 82.00 31.36 82.47 30.59 82.71 30.21 C 81.91 31.05 81.11 31.89 80.31 32.72 C 78.76 31.52 76.83 31.17 74.91 31.17 C 74.56 29.88 73.79 28.82 72.91 27.84 C 72.50 25.77 71.96 23.74 71.11 21.80 C 70.48 23.36 69.65 24.82 68.84 26.29 C 69.49 26.06 70.79 25.62 71.44 25.40 C 71.89 28.81 72.67 32.22 72.30 35.69 C 71.95 36.76 70.78 37.00 69.95 37.59 C 69.95 38.30 69.95 39.71 69.95 40.41 L 70.86 40.44 L 70.48 38.11 C 70.93 37.97 71.81 37.69 72.25 37.55 C 72.89 41.34 74.75 44.84 74.90 48.72 C 72.66 46.45 72.10 43.30 71.11 40.40 C 71.12 43.65 72.26 46.69 73.23 49.74 C 72.59 49.29 71.32 48.38 70.68 47.92 C 70.73 49.33 70.77 50.73 70.78 52.14 C 68.33 48.01 66.21 43.36 66.31 38.47 C 65.87 36.18 64.93 33.30 67.35 31.69 C 67.40 33.78 67.20 35.88 67.30 37.97 C 67.75 36.15 68.17 34.32 68.55 32.47 L 68.96 33.27 C 69.07 33.63 69.30 34.36 69.41 34.73 C 71.87 33.63 71.39 29.75 70.41 27.68 C 70.30 29.22 70.09 32.29 69.98 33.82 C 68.00 32.27 68.18 30.12 68.72 28.00 C 67.98 28.45 66.50 29.36 65.76 29.82 C 66.51 27.68 67.45 25.61 68.61 23.66 L 68.90 23.15 L 68.36 22.90 L 68.08 23.42 L 68.61 23.66 C 64.38 26.07 64.51 31.76 64.70 36.01 C 64.61 42.22 67.96 47.64 69.21 53.57 C 66.53 50.41 64.48 46.53 64.30 42.32 C 63.14 43.38 62.02 44.48 60.82 45.49 C 60.72 44.71 60.50 43.15 60.39 42.38 C 61.55 42.16 62.72 42.17 63.90 42.42 C 62.54 37.72 63.22 32.85 63.80 28.10 Z" />
<path fill="#ffffff" d=" M 68.08 23.42 L 68.36 22.90 L 68.90 23.15 L 68.61 23.66 L 68.08 23.42 Z" />
<path fill="#ffffff" d=" M 87.89 27.05 C 85.42 26.30 88.38 21.44 89.58 24.02 C 89.08 25.04 88.57 26.16 87.89 27.05 Z" />
<path fill="#020202" d=" M 49.33 26.57 C 52.28 25.22 56.24 24.67 58.67 27.32 C 62.08 31.24 61.40 36.85 61.01 41.65 C 60.64 41.61 59.92 41.51 59.56 41.47 C 60.29 38.27 60.95 34.97 59.94 31.73 C 57.80 37.07 58.01 43.33 54.55 48.20 C 53.75 47.32 53.73 46.41 54.50 45.48 C 56.32 42.29 57.32 38.72 57.72 35.08 C 57.22 35.41 56.22 36.05 55.72 36.38 C 55.05 39.04 53.79 41.49 52.70 43.99 C 52.48 45.97 52.36 47.95 52.42 49.94 C 54.06 50.53 55.73 51.02 57.40 51.55 C 56.67 51.61 55.23 51.74 54.51 51.81 L 54.90 53.00 L 55.96 52.56 C 56.59 53.21 57.86 54.52 58.49 55.17 C 59.14 52.52 57.41 50.86 55.44 49.57 C 56.83 47.54 57.97 45.37 59.17 43.23 C 59.33 43.24 59.66 43.24 59.82 43.25 C 60.01 45.57 58.11 47.41 57.11 49.34 C 60.74 50.53 60.12 54.87 58.04 57.11 C 56.50 53.65 52.28 53.58 49.98 51.00 C 47.55 46.69 48.05 41.06 51.29 37.27 C 51.70 36.15 53.63 35.34 53.12 34.02 C 52.30 33.87 50.66 33.56 49.84 33.41 C 48.30 31.37 48.46 28.86 49.33 26.57 Z" />
<path fill="#ffffff" d=" M 52.16 32.55 C 47.81 32.63 49.42 26.05 53.05 26.41 C 56.29 25.70 58.09 28.94 59.84 31.00 C 59.22 31.53 58.60 32.06 58.00 32.60 L 56.93 30.00 C 57.16 31.02 57.62 33.07 57.85 34.09 C 56.99 34.70 56.13 35.32 55.27 35.93 C 53.15 40.36 50.62 44.72 50.37 49.77 C 49.31 46.88 48.88 43.38 50.62 40.65 C 52.67 37.15 55.83 33.86 55.59 29.50 C 54.55 29.44 53.50 29.42 52.45 29.45 C 52.38 30.22 52.23 31.77 52.16 32.55 Z" />
<path fill="#020202" d=" M 66.44 29.53 C 67.77 29.67 67.98 30.38 67.07 31.65 C 65.70 31.50 65.49 30.79 66.44 29.53 Z" />
<path fill="#ffffff" d=" M 89.63 40.58 C 89.10 36.47 88.06 32.06 89.36 28.01 C 89.80 32.18 89.79 36.40 89.63 40.58 Z" />
<path fill="#020202" d=" M 73.48 30.94 L 73.83 30.92 C 74.41 32.38 74.54 33.90 74.21 35.46 C 73.93 35.45 73.38 35.43 73.10 35.42 C 73.00 33.89 73.13 32.40 73.48 30.94 Z" />
<path fill="#020202" d=" M 75.65 31.78 C 76.81 32.36 77.98 33.02 79.37 32.82 L 79.42 33.57 C 81.06 32.99 82.73 32.48 84.41 32.04 C 85.44 35.79 81.95 35.33 79.52 35.71 C 77.54 35.16 73.19 35.67 75.65 31.78 Z" />
<path fill="#020202" d=" M 93.31 37.83 C 91.97 37.31 92.31 33.47 93.73 33.18 C 94.26 34.64 94.00 36.47 93.31 37.83 Z" />
<path fill="#020202" d=" M 75.99 35.53 C 78.20 37.48 81.18 36.33 83.75 36.14 C 83.91 36.80 84.22 38.11 84.37 38.77 C 82.73 39.06 81.09 39.33 79.45 39.60 C 78.49 39.41 76.57 39.04 75.60 38.85 C 75.70 38.02 75.89 36.36 75.99 35.53 Z" />
<path fill="#020202" d=" M 85.70 40.45 C 84.24 40.49 84.67 36.89 85.95 36.90 C 86.57 38.13 86.49 39.31 85.70 40.45 Z" />
<path fill="#020202" d=" M 40.50 38.20 C 43.41 39.22 46.76 41.35 46.78 44.81 C 46.69 48.91 47.84 54.36 44.04 57.14 C 39.02 58.82 35.26 64.09 29.42 62.62 C 28.74 61.87 28.07 61.13 27.39 60.39 C 27.36 58.19 27.27 55.55 29.76 54.63 C 31.67 54.91 33.51 55.51 35.44 55.65 C 33.28 53.20 30.91 50.54 31.33 47.00 C 33.74 47.12 36.15 47.25 38.56 47.51 C 39.60 44.49 40.14 41.36 40.50 38.20 Z" />
<path fill="#ffffff" d=" M 68.03 38.00 C 68.62 38.73 68.62 38.73 68.03 38.00 Z" />
<path fill="#020202" d=" M 73.87 41.32 C 73.23 39.68 74.12 38.28 74.98 36.97 C 75.04 37.82 75.16 39.53 75.22 40.38 C 76.07 40.31 77.76 40.17 78.61 40.10 C 78.73 41.00 78.97 42.80 79.09 43.69 C 77.35 42.91 75.62 42.07 73.87 41.32 Z" />
<path fill="#ffffff" d=" M 41.85 39.72 C 43.45 41.18 45.65 42.29 45.95 44.73 C 44.86 44.25 43.80 43.72 42.77 43.13 C 43.66 46.66 44.85 50.59 42.96 54.02 C 42.58 51.53 42.43 48.99 41.75 46.54 C 41.55 48.90 42.09 51.32 41.25 53.60 C 40.79 52.75 39.87 51.05 39.40 50.20 C 39.86 46.62 41.31 43.28 41.85 39.72 Z" />
<path fill="#ffffff" d=" M 115.69 41.26 C 116.27 40.88 117.44 40.12 118.03 39.74 C 117.96 43.54 120.80 47.12 119.30 50.87 C 119.71 51.19 120.11 51.51 120.52 51.84 C 119.73 52.43 118.15 53.62 117.36 54.21 C 117.79 52.02 118.43 49.80 117.92 47.56 C 117.21 49.69 117.00 51.99 115.78 53.93 C 115.59 50.00 115.61 46.04 116.60 42.21 C 116.37 41.97 115.92 41.50 115.69 41.26 Z" />
<path fill="#020202" d=" M 100.37 44.37 C 100.65 44.65 100.65 44.65 100.37 44.37 Z" />
<path fill="#ffffff" d=" M 113.94 43.91 C 114.17 43.99 114.61 44.14 114.84 44.22 C 114.83 47.34 114.55 50.47 114.41 53.59 C 113.45 50.45 113.31 47.13 113.94 43.91 Z" />
<path fill="#ffffff" d=" M 45.31 46.08 C 46.81 47.10 46.59 50.78 45.39 51.71 C 44.97 50.02 44.41 47.55 45.31 46.08 Z" />
<path fill="#ffffff" d=" M 70.17 46.35 C 73.50 46.46 68.77 49.37 70.17 46.35 Z" />
<path fill="#020202" d=" M 87.21 47.07 L 87.87 47.22 C 87.87 47.58 87.85 48.31 87.85 48.67 L 86.92 48.48 L 86.61 47.51 L 87.21 47.07 Z" />
<path fill="#ffffff" d=" M 32.38 47.62 C 35.37 47.95 38.98 48.18 39.85 51.72 C 38.04 50.51 36.14 49.47 34.15 48.61 C 35.48 50.31 37.97 51.06 38.89 53.01 C 38.23 53.12 36.91 53.33 36.25 53.43 C 37.89 54.39 39.67 54.85 41.60 54.80 C 37.66 55.69 34.62 59.96 30.42 59.05 C 30.98 60.05 31.51 61.08 32.02 62.12 C 27.37 61.83 27.93 57.28 30.12 54.83 C 30.34 55.78 30.80 57.70 31.02 58.65 C 33.25 57.50 35.34 56.10 37.62 55.07 C 34.78 53.56 32.77 50.84 32.38 47.62 Z" />
<path fill="#ffffff" d=" M 38.89 53.01 C 39.34 53.45 39.34 53.45 38.89 53.01 Z" />
<path fill="#ffffff" d=" M 85.32 54.23 C 85.85 54.87 85.85 54.87 85.32 54.23 Z" />
<path fill="#ffffff" d=" M 86.96 54.60 C 87.90 53.94 90.08 54.80 89.64 56.12 C 88.70 56.85 86.57 55.86 86.96 54.60 Z" />
<path fill="#ffffff" d=" M 47.44 59.40 C 48.54 57.99 48.93 56.19 49.71 54.61 C 54.14 57.96 59.16 61.34 64.96 61.11 C 68.47 61.38 71.68 59.82 75.03 59.09 C 76.54 60.90 77.89 62.83 79.23 64.76 C 79.14 69.89 79.23 75.03 79.16 80.17 C 75.93 81.46 72.21 81.12 69.20 82.91 C 69.84 85.13 70.16 87.43 70.42 89.73 C 64.27 89.99 58.12 89.82 51.97 89.87 C 48.91 90.44 48.25 86.23 45.16 86.15 C 45.55 81.42 46.79 76.75 46.44 71.97 C 46.38 68.16 44.52 64.71 42.45 61.62 C 44.13 60.92 45.93 60.44 47.44 59.40 Z" />
<path fill="#ffffff" d=" M 63.22 56.26 C 63.85 56.78 63.85 56.78 63.22 56.26 Z" />
<path fill="#ffffff" d=" M 91.15 56.28 C 91.87 56.72 91.87 56.72 91.15 56.28 Z" />
<path fill="#020202" d=" M 149.57 56.19 C 150.12 56.19 151.23 56.17 151.78 56.17 C 151.85 59.44 151.52 62.75 152.11 65.99 C 153.04 66.94 154.24 67.57 155.33 68.34 C 156.12 67.66 156.88 66.95 157.60 66.20 C 157.81 62.91 157.66 59.61 157.66 56.32 C 158.23 56.24 159.38 56.08 159.96 56.01 C 159.41 60.29 161.64 65.78 158.04 69.09 C 155.40 69.96 151.03 70.46 149.83 67.18 C 149.28 63.55 149.69 59.85 149.57 56.19 Z" />
<path fill="#020202" d=" M 165.30 56.23 C 165.90 56.21 167.08 56.15 167.67 56.12 C 169.67 59.31 171.83 62.40 173.96 65.49 C 174.01 62.29 174.00 59.09 173.99 55.88 C 174.59 56.04 175.79 56.35 176.39 56.50 C 176.52 60.97 176.48 65.44 176.34 69.91 C 175.76 69.75 174.61 69.42 174.03 69.25 C 171.54 66.37 169.60 63.06 167.47 59.91 C 167.65 63.21 167.69 66.51 167.55 69.80 L 165.44 69.34 C 165.14 64.98 165.41 60.60 165.30 56.23 Z" />
<path fill="#020202" d=" M 187.84 56.14 C 188.88 56.20 189.91 56.26 190.94 56.32 C 191.71 59.72 193.15 62.90 194.26 66.20 C 195.53 62.98 196.59 59.67 197.96 56.49 C 198.60 56.30 199.87 55.90 200.50 55.71 C 198.77 60.36 197.40 65.18 195.14 69.62 C 194.61 69.59 193.54 69.55 193.01 69.53 C 190.96 65.20 189.82 60.51 187.84 56.14 Z" />
<path fill="#020202" d=" M 204.42 56.19 C 207.14 56.20 209.86 56.21 212.59 56.21 C 212.55 56.81 212.46 58.02 212.42 58.63 C 210.56 58.51 208.70 58.29 206.84 58.31 C 206.67 59.46 206.63 60.62 206.53 61.77 C 208.28 61.77 210.03 61.77 211.79 61.77 L 211.70 63.69 C 210.02 63.51 208.36 63.32 206.69 63.16 C 206.68 64.64 206.68 66.12 206.68 67.61 C 208.69 67.57 210.70 67.54 212.72 67.49 L 212.66 69.52 C 209.92 69.51 207.17 69.51 204.43 69.53 C 204.43 65.08 204.44 60.63 204.42 56.19 Z" />
<path fill="#020202" d=" M 217.13 56.14 C 219.99 56.43 223.88 55.35 225.77 58.17 C 227.16 60.25 225.28 62.33 224.08 63.95 C 225.22 65.76 226.32 67.61 227.32 69.50 C 226.56 69.51 225.04 69.51 224.27 69.52 C 222.98 67.35 222.80 63.69 219.62 63.62 C 219.57 65.59 219.56 67.56 219.57 69.53 C 218.96 69.53 217.74 69.55 217.13 69.55 C 217.11 65.08 217.10 60.61 217.13 56.14 Z" />
<path fill="#020202" d=" M 232.21 57.25 C 234.41 55.45 237.40 56.28 240.00 56.19 C 239.93 56.87 239.80 58.23 239.73 58.92 C 238.29 58.51 236.86 58.09 235.43 57.65 C 234.62 58.42 233.82 59.21 233.04 60.02 C 235.29 61.44 237.97 62.19 239.94 64.03 C 240.09 65.24 240.18 66.47 240.21 67.70 C 237.56 70.27 233.82 69.62 230.49 69.48 C 230.74 68.70 231.00 67.92 231.26 67.14 C 233.68 67.70 237.36 69.08 238.06 65.63 C 235.92 64.18 233.51 63.21 231.39 61.75 C 231.19 60.24 230.80 58.33 232.21 57.25 Z" />
<path fill="#020202" d=" M 252.57 56.19 C 256.37 55.89 260.37 56.18 263.30 58.94 C 263.40 61.88 264.35 65.62 261.64 67.73 C 259.12 69.94 255.65 69.52 252.57 69.54 C 252.56 65.09 252.56 60.64 252.57 56.19 Z" />
<path fill="#020202" d=" M 270.76 57.44 C 270.95 55.89 272.64 55.97 273.80 56.29 C 275.51 60.79 277.37 65.24 278.62 69.90 C 276.06 70.22 275.43 67.94 274.56 66.16 C 273.03 66.18 271.50 66.19 269.97 66.20 C 269.55 67.35 269.12 68.51 268.69 69.66 C 268.07 69.59 266.81 69.46 266.18 69.39 C 267.64 65.38 269.36 61.47 270.76 57.44 Z" />
<path fill="#020202" d=" M 282.64 56.15 C 285.82 56.24 289.45 55.77 292.08 57.99 C 294.85 60.89 294.18 65.75 291.11 68.15 C 288.64 69.93 285.48 69.44 282.64 69.58 C 282.64 65.10 282.64 60.63 282.64 56.15 Z" />
<path fill="#ffffff" d=" M 38.76 57.96 C 39.60 57.41 39.60 57.41 38.76 57.96 Z" />
<path fill="#ffffff" d=" M 120.18 57.49 C 122.02 55.81 122.11 60.28 120.23 58.33 L 120.18 57.49 Z" />
<path fill="#020202" d=" M 181.99 55.78 C 182.54 55.98 183.63 56.37 184.18 56.57 C 184.38 60.87 184.20 65.19 184.24 69.50 C 183.68 69.51 182.54 69.53 181.98 69.54 C 182.02 64.96 182.00 60.37 181.99 55.78 Z" />
<path fill="#020202" d=" M 244.62 56.21 C 245.26 56.18 246.56 56.12 247.21 56.10 C 247.20 60.59 247.20 65.08 247.22 69.58 C 246.57 69.56 245.27 69.53 244.62 69.51 C 244.62 65.08 244.62 60.65 244.62 56.21 Z" />
<path fill="#ffffff" d=" M 37.08 58.93 C 37.31 58.61 37.79 57.97 38.03 57.65 L 38.76 57.96 C 38.53 58.28 38.06 58.93 37.83 59.25 L 37.08 58.93 Z" />
<path fill="#ffffff" d=" M 219.57 58.14 C 220.83 58.31 222.09 58.49 223.35 58.68 C 223.36 59.83 223.37 60.97 223.38 62.12 C 222.13 62.32 220.88 62.49 219.63 62.66 C 219.59 61.15 219.58 59.65 219.57 58.14 Z" />
<path fill="#ffffff" d=" M 255.25 58.03 C 256.93 58.48 258.93 58.42 260.24 59.75 C 261.27 61.34 261.12 63.32 260.88 65.11 C 260.07 67.47 257.29 67.60 255.21 67.79 C 255.12 64.53 255.12 61.28 255.25 58.03 Z" />
<path fill="#ffffff" d=" M 33.27 59.99 C 34.48 59.35 35.75 59.00 37.08 58.93 C 36.66 60.06 35.79 60.80 34.48 61.14 C 33.42 61.21 33.02 60.83 33.27 59.99 Z" />
<path fill="#ffffff" d=" M 272.49 58.80 C 273.00 60.51 273.50 62.23 273.99 63.96 C 272.79 63.96 271.59 63.96 270.40 63.97 C 271.12 62.25 271.80 60.52 272.49 58.80 Z" />
<path fill="#ffffff" d=" M 285.34 58.14 C 286.23 58.29 288.01 58.58 288.90 58.72 C 289.45 59.16 290.53 60.04 291.07 60.48 C 291.15 62.34 291.55 64.40 290.48 66.07 C 289.23 67.59 287.11 67.43 285.38 67.86 C 285.28 64.62 285.29 61.38 285.34 58.14 Z" />
<path fill="#ffffff" d=" M 36.24 64.17 C 37.23 67.94 36.35 71.95 37.15 75.79 L 38.43 75.85 C 37.81 72.12 37.69 68.29 38.79 64.63 C 39.41 68.37 39.33 72.17 39.41 75.95 C 39.71 75.90 40.31 75.82 40.61 75.78 C 40.72 72.20 40.13 68.67 39.68 65.14 C 44.06 70.32 43.36 79.31 37.77 83.30 C 35.88 77.16 33.91 70.50 36.24 64.17 Z" />
<path fill="#020202" d=" M 54.28 67.92 C 56.76 67.27 59.27 66.76 61.75 66.09 C 64.08 66.79 66.47 67.24 68.82 67.88 C 67.71 72.09 70.91 75.71 71.64 79.74 C 70.85 80.34 70.04 80.90 69.21 81.44 C 67.01 81.27 64.77 81.04 62.72 80.15 C 64.05 76.32 65.14 72.41 66.60 68.62 C 63.40 69.44 60.17 69.47 56.96 68.67 C 57.03 69.17 57.16 70.15 57.22 70.64 C 56.11 71.83 55.18 73.15 54.43 74.61 C 54.31 72.38 54.40 70.15 54.28 67.92 Z" />
<path fill="#020202" d=" M 93.47 70.41 C 94.92 67.45 97.95 66.10 101.04 65.56 C 103.22 66.26 105.90 66.75 106.75 69.21 C 109.33 74.10 102.75 79.06 98.34 77.77 C 98.32 77.56 98.27 77.15 98.25 76.94 C 100.43 76.10 103.25 75.92 104.45 73.59 C 105.99 71.65 104.63 68.24 102.15 68.00 C 98.95 67.28 96.60 70.32 93.47 70.41 Z" />
<path fill="#020202" d=" M 116.98 67.80 L 117.87 67.68 L 118.38 68.47 C 118.09 68.64 117.50 68.98 117.20 69.14 L 116.66 68.68 L 116.98 67.80 Z" />
<path fill="#020202" d=" M 56.69 71.45 L 57.54 71.52 C 58.45 74.38 59.49 77.19 60.69 79.94 C 60.04 80.28 58.73 80.95 58.07 81.29 C 55.75 81.41 53.43 81.14 51.36 80.02 C 52.26 77.99 52.91 75.85 53.97 73.88 C 53.85 75.57 53.66 77.25 53.42 78.93 C 55.21 78.59 57.01 78.68 58.80 78.97 C 58.29 77.46 57.82 75.94 57.36 74.42 L 56.35 74.88 C 56.44 74.03 56.61 72.31 56.69 71.45 Z" />
<path fill="#020202" d=" M 89.05 71.92 C 93.99 71.82 98.93 71.84 103.87 71.90 C 102.33 74.14 99.83 75.13 97.33 75.88 C 97.26 77.36 97.20 78.84 97.16 80.32 L 95.81 80.66 C 95.85 79.09 95.83 77.52 95.74 75.95 C 93.31 74.95 90.70 74.14 89.05 71.92 Z" />
<path fill="#ffffff" d=" M 64.29 79.29 C 65.00 76.51 65.95 73.80 67.20 71.21 C 67.42 73.63 67.35 76.06 67.15 78.47 C 66.44 78.68 65.01 79.09 64.29 79.29 Z" />
<path fill="#ffffff" d=" M 68.20 74.29 C 69.39 74.79 70.11 77.68 69.58 78.99 C 67.24 79.43 67.52 75.65 68.20 74.29 Z" />
<path fill="#020202" d=" M 121.15 78.46 C 120.35 77.23 120.65 76.54 122.04 76.38 C 122.81 77.60 122.51 78.29 121.15 78.46 Z" />
<path fill="#020202" d=" M 93.33 81.40 C 90.57 80.35 93.71 77.82 95.18 77.20 C 94.95 78.31 94.71 79.42 94.46 80.53 C 97.65 81.00 101.72 81.53 102.56 85.31 C 99.75 83.40 96.62 82.16 93.33 81.40 Z" />
<path fill="#020202" d=" M 190.48 80.73 C 193.94 88.99 196.80 97.47 200.01 105.83 C 198.29 105.73 196.57 105.65 194.86 105.58 C 194.28 103.44 193.60 101.33 192.89 99.24 C 189.77 99.30 186.64 99.07 183.53 99.42 C 182.62 101.46 182.01 103.61 181.23 105.70 C 179.65 105.68 178.06 105.66 176.48 105.65 C 180.04 97.71 182.66 89.40 186.14 81.43 C 187.58 81.22 189.03 80.99 190.48 80.73 Z" />
<path fill="#020202" d=" M 207.91 83.93 C 212.19 80.06 218.43 80.38 223.67 81.67 C 223.36 82.91 223.03 84.16 222.71 85.40 C 218.75 84.61 213.54 82.98 210.42 86.48 C 207.73 89.99 207.84 95.32 209.87 99.12 C 212.70 103.69 218.77 103.11 223.22 101.73 C 223.36 102.82 223.51 103.92 223.66 105.01 C 222.13 105.43 220.59 105.82 219.06 106.26 C 217.00 106.31 214.93 106.32 212.87 106.34 C 208.84 105.20 204.98 102.25 204.24 97.91 C 203.51 93.11 203.71 87.16 207.91 83.93 Z" />
<path fill="#020202" d=" M 247.99 83.01 C 252.02 80.20 257.28 80.30 261.71 82.06 C 263.92 84.28 266.55 86.67 266.61 90.05 C 266.85 93.73 267.19 97.83 264.85 100.96 C 263.21 103.85 260.06 105.23 257.08 106.31 C 254.98 106.30 252.88 106.31 250.78 106.34 C 240.70 103.63 239.59 88.28 247.99 83.01 Z" />
<path fill="#020202" d=" M 149.56 81.31 C 151.08 81.31 152.60 81.32 154.13 81.33 C 158.11 87.26 162.25 93.09 166.17 99.06 C 166.20 93.14 166.15 87.22 166.20 81.30 C 167.48 81.30 168.77 81.29 170.06 81.29 C 170.01 88.89 170.15 96.50 170.01 104.10 C 170.43 106.20 168.02 106.07 166.71 106.62 C 162.37 100.54 158.14 94.38 153.88 88.23 C 153.77 94.05 153.83 99.87 153.84 105.68 C 152.76 105.69 150.62 105.69 149.55 105.69 C 149.61 97.56 149.58 89.43 149.56 81.31 Z" />
<path fill="#020202" d=" M 230.49 81.29 C 232.03 81.30 233.57 81.32 235.12 81.33 C 235.13 89.45 235.13 97.57 235.12 105.68 C 233.57 105.68 232.03 105.68 230.49 105.68 C 230.50 97.55 230.49 89.42 230.49 81.29 Z" />
<path fill="#020202" d=" M 274.34 81.30 C 275.81 81.30 277.28 81.31 278.76 81.31 C 282.73 87.39 287.06 93.24 290.96 99.36 C 290.91 93.33 290.95 87.30 290.93 81.26 C 292.36 81.30 293.78 81.34 295.21 81.38 C 294.57 89.45 294.96 97.56 294.87 105.65 C 293.63 105.90 292.39 106.19 291.14 106.32 C 286.77 100.23 282.54 94.04 278.26 87.89 C 278.25 93.81 278.24 99.74 278.26 105.66 C 276.96 105.68 275.65 105.69 274.35 105.72 C 274.36 97.58 274.38 89.43 274.34 81.30 Z" />
<path fill="#020202" d=" M 310.75 81.29 C 312.36 81.24 313.97 81.18 315.58 81.12 C 318.48 89.36 321.42 97.59 324.77 105.66 C 323.10 105.67 321.43 105.68 319.76 105.70 C 318.93 103.55 318.12 101.40 317.33 99.24 C 314.24 99.26 311.16 99.25 308.08 99.25 C 307.32 101.34 306.70 103.47 305.90 105.54 C 304.39 105.70 302.88 105.72 301.38 105.79 C 304.23 97.52 307.65 89.47 310.75 81.29 Z" />
<path fill="#020202" d=" M 330.87 81.27 C 332.42 81.29 333.97 81.31 335.53 81.32 C 335.48 88.36 335.51 95.39 335.51 102.43 C 338.95 102.43 342.40 102.44 345.85 102.41 C 345.81 103.51 345.77 104.60 345.74 105.69 C 340.79 105.66 335.83 105.66 330.88 105.70 C 330.87 97.56 330.87 89.41 330.87 81.27 Z" />
<path fill="#ffffff" d=" M 77.83 85.25 C 77.29 84.04 76.80 82.81 76.36 81.57 L 79.15 81.79 C 79.16 82.64 79.20 84.33 79.22 85.18 C 78.56 86.00 77.94 86.84 77.35 87.71 L 75.14 86.52 C 75.89 88.08 76.59 89.68 77.38 91.22 L 75.55 91.36 C 76.60 92.55 77.66 93.74 78.78 94.87 C 78.50 96.12 78.25 97.37 77.97 98.62 C 77.72 97.65 77.22 95.72 76.97 94.76 L 76.27 95.19 C 75.94 95.16 75.27 95.12 74.94 95.09 C 74.84 93.15 73.46 92.06 71.92 91.14 C 72.09 92.56 72.28 93.98 72.50 95.39 C 73.14 96.26 73.77 97.14 74.37 98.04 C 75.95 98.57 77.52 99.11 79.12 99.58 C 78.59 99.73 77.55 100.02 77.03 100.16 L 77.80 102.47 C 74.94 100.65 71.55 98.86 70.66 95.29 C 72.23 91.43 71.30 87.18 70.70 83.22 C 72.56 83.05 74.40 82.81 76.24 82.52 C 76.31 83.08 76.43 84.20 76.49 84.76 C 76.82 84.88 77.49 85.13 77.83 85.25 Z" />
<path fill="#ffffff" d=" M 79.17 80.88 C 82.25 82.12 85.43 83.20 88.80 83.13 C 88.24 87.64 90.13 92.24 88.60 96.63 C 87.51 99.36 84.67 100.64 82.39 102.18 C 80.79 98.31 85.79 98.06 87.54 95.74 C 88.03 92.80 88.52 89.80 87.84 86.84 C 87.04 88.80 86.82 90.91 86.63 93.01 C 86.39 92.52 85.90 91.55 85.65 91.07 L 85.05 91.20 L 85.75 92.11 C 84.43 93.39 83.36 94.96 81.64 95.73 C 81.11 96.76 80.59 97.80 79.96 98.77 C 79.88 97.75 79.74 95.73 79.66 94.71 C 80.31 94.63 81.60 94.47 82.25 94.39 C 83.02 92.53 84.78 90.47 82.36 88.97 C 86.40 88.62 83.47 85.43 82.62 83.57 C 82.58 84.64 82.50 86.77 82.45 87.84 C 81.32 85.54 80.20 83.23 79.17 80.88 Z" />
<path fill="#020202" d=" M 92.55 84.83 C 93.89 84.16 95.25 83.55 96.62 82.94 C 97.88 83.63 99.13 84.32 100.38 85.03 C 97.77 85.16 95.15 85.12 92.55 84.83 Z" />
<path fill="#020202" d=" M 27.01 91.06 C 26.01 87.50 29.00 82.55 33.09 83.80 C 33.68 84.82 34.16 85.88 34.53 87.01 C 33.12 87.33 31.79 87.88 30.47 88.47 C 30.49 87.42 30.51 85.32 30.52 84.28 C 29.13 86.13 27.99 88.14 27.94 90.54 C 29.16 90.40 30.38 90.27 31.61 90.15 L 31.00 91.20 C 31.77 91.49 33.33 92.08 34.11 92.37 C 35.58 91.77 37.03 91.12 38.46 90.44 C 38.63 89.93 38.98 88.91 39.15 88.40 C 38.04 88.74 35.82 89.41 34.71 89.75 C 35.86 88.51 37.21 87.58 38.78 86.96 C 39.94 85.63 41.05 84.26 42.15 82.88 C 42.73 87.45 42.51 93.38 37.84 95.79 C 33.89 98.43 27.52 95.97 27.01 91.06 Z" />
<path fill="#ffffff" d=" M 250.38 85.20 C 253.44 83.81 257.97 83.89 260.07 86.93 C 263.33 91.39 263.14 98.31 259.07 102.23 C 257.70 102.55 256.35 102.89 255.00 103.26 C 252.87 102.45 250.10 102.26 248.92 100.01 C 246.58 95.42 246.25 88.89 250.38 85.20 Z" />
<path fill="#ffffff" d=" M 80.27 86.22 C 80.88 86.86 80.88 86.86 80.27 86.22 Z" />
<path fill="#ffffff" d=" M 187.89 85.89 C 189.34 89.06 190.36 92.40 191.55 95.68 C 189.25 95.69 186.95 95.69 184.66 95.71 C 185.93 92.50 187.04 89.24 187.89 85.89 Z" />
<path fill="#ffffff" d=" M 312.74 85.90 C 313.80 89.22 314.89 92.53 316.23 95.75 C 313.96 95.70 311.68 95.68 309.41 95.66 C 310.52 92.41 311.52 89.12 312.74 85.90 Z" />
<path fill="#ffffff" d=" M 79.20 87.94 C 82.06 86.23 79.49 91.25 79.20 87.94 Z" />
<path fill="#020202" d=" M 32.19 89.34 C 32.79 88.28 33.62 88.09 34.71 88.79 C 34.45 90.18 33.61 90.37 32.19 89.34 Z" />
<path fill="#020202" d=" M 84.33 89.49 C 85.06 90.02 85.06 90.02 84.33 89.49 Z" />
<path fill="#ffffff" d=" M 79.36 90.07 C 82.56 88.90 79.10 93.35 79.36 90.07 Z" />
<path fill="#ffffff" d=" M 27.96 91.49 C 30.56 90.56 32.33 93.87 35.00 93.15 C 37.89 93.30 39.49 90.34 41.54 88.86 C 40.49 91.54 38.68 93.76 36.45 95.50 C 33.08 95.76 29.40 95.01 27.96 91.49 Z" />
<path fill="#ffffff" d=" M 90.23 90.78 C 96.83 90.81 103.43 90.78 110.02 90.80 C 110.77 92.93 112.57 94.12 114.63 94.78 C 114.59 97.46 114.50 100.13 114.19 102.79 C 112.58 109.90 110.07 117.62 103.63 121.81 C 96.57 126.23 88.16 127.59 80.69 131.13 C 80.66 122.11 80.74 113.08 80.64 104.05 C 84.56 102.65 88.58 100.54 90.24 96.47 C 90.21 94.57 90.22 92.68 90.23 90.78 Z" />
<path fill="#ffffff" d=" M 79.19 92.01 C 82.13 90.49 79.40 95.33 79.19 92.01 Z" />
<path fill="#020202" d=" M 32.32 102.53 C 34.76 99.18 38.65 97.40 41.54 94.50 C 42.29 97.97 42.88 101.59 42.21 105.12 C 41.02 109.84 36.61 112.65 34.58 116.91 C 36.05 116.26 37.53 115.61 39.01 114.99 C 37.18 117.65 35.31 120.63 35.70 124.02 C 35.64 126.98 37.84 129.17 39.41 131.43 C 38.49 126.62 40.98 122.32 41.92 117.76 L 42.04 120.14 C 42.46 119.27 42.88 118.40 43.28 117.53 C 43.01 116.48 42.46 114.39 42.19 113.34 C 39.94 117.49 38.71 122.05 37.26 126.52 C 37.53 121.96 38.78 117.55 40.37 113.30 C 40.03 113.72 39.35 114.56 39.01 114.99 L 37.55 114.54 C 39.77 112.52 42.05 110.56 44.42 108.71 C 44.69 110.37 45.82 112.13 44.93 113.79 C 44.47 114.67 44.09 115.58 43.77 116.53 C 44.80 118.59 45.73 120.71 46.54 122.87 C 45.85 121.94 44.47 120.06 43.77 119.13 C 43.30 119.94 42.83 120.77 42.37 121.59 C 44.37 123.86 47.61 123.35 49.94 125.01 C 47.13 125.30 44.36 124.73 41.95 123.26 C 41.32 124.76 40.65 126.24 39.97 127.72 C 42.05 126.94 44.85 127.71 43.79 130.76 C 44.11 130.40 44.76 129.68 45.08 129.31 C 47.23 125.81 52.16 124.56 55.93 125.87 C 61.04 127.13 65.75 129.50 70.72 131.17 C 68.33 132.70 66.04 134.55 63.23 135.22 C 60.80 135.55 58.33 135.37 55.88 135.34 C 53.29 134.30 50.83 132.99 48.40 131.63 C 48.31 132.43 48.14 134.04 48.06 134.85 C 46.95 134.75 45.85 134.59 44.76 134.36 C 44.17 133.06 43.87 131.66 43.38 130.33 C 42.50 132.31 40.14 131.78 38.53 131.39 C 33.91 129.23 34.03 123.00 35.41 118.85 C 34.60 118.27 33.40 116.14 33.32 119.30 C 29.02 114.84 29.07 107.56 32.32 102.53 Z" />
<path fill="#020202" d=" M 92.76 96.70 C 93.24 96.52 94.20 96.16 94.69 95.98 C 96.11 97.61 97.63 99.58 100.02 99.63 C 102.10 99.60 104.17 99.25 106.25 99.14 C 106.94 101.97 104.65 104.09 103.40 106.35 C 100.95 109.89 98.99 113.79 96.20 117.08 C 95.55 117.20 94.24 117.46 93.59 117.59 C 94.27 114.53 92.77 111.82 91.85 109.03 C 90.40 104.91 93.36 100.90 92.76 96.70 Z" />
<path fill="#020202" d=" M 117.96 94.78 C 122.17 97.86 127.40 100.58 129.04 105.94 C 130.18 110.57 129.98 116.08 126.08 119.40 C 124.69 113.46 118.21 110.30 117.47 104.17 C 116.89 101.04 117.65 97.89 117.96 94.78 Z" />
<path fill="#ffffff" d=" M 95.14 112.81 C 92.31 108.41 93.04 102.76 95.03 98.19 C 95.44 103.05 95.16 107.94 95.14 112.81 Z" />
<path fill="#ffffff" d=" M 122.51 100.06 C 122.35 99.71 122.03 99.02 121.87 98.67 C 127.38 102.71 130.98 110.80 126.71 116.99 C 123.69 111.51 117.73 107.18 118.19 100.30 C 119.98 103.82 121.67 107.40 123.67 110.82 C 124.14 110.78 125.09 110.70 125.57 110.66 C 125.84 111.34 126.38 112.71 126.65 113.40 C 126.85 108.57 125.06 104.07 122.51 100.06 Z" />
<path fill="#ffffff" d=" M 31.66 106.92 C 32.70 103.41 35.46 100.75 38.20 98.47 C 35.68 102.79 32.49 107.44 33.15 112.69 C 33.67 111.30 34.14 109.90 34.58 108.49 L 35.13 109.89 L 34.72 110.25 L 35.45 110.96 L 35.79 109.37 C 36.38 109.86 36.97 110.35 37.55 110.85 C 35.56 112.69 34.19 115.04 32.88 117.38 C 31.24 114.15 30.96 110.44 31.66 106.92 Z" />
<path fill="#ffffff" d=" M 38.76 101.36 C 35.93 101.37 39.52 99.93 40.16 100.72 C 42.18 101.29 40.87 103.55 40.77 104.99 C 40.12 107.00 38.92 108.80 37.56 110.41 C 36.72 107.20 40.11 104.86 40.18 101.67 C 39.83 101.59 39.12 101.44 38.76 101.36 Z" />
<path fill="#ffffff" d=" M 79.98 102.05 C 79.52 100.59 79.99 100.14 81.39 100.72 C 81.87 102.15 81.40 102.59 79.98 102.05 Z" />
<path fill="#ffffff" d=" M 96.52 99.32 C 97.80 103.72 97.04 108.45 97.18 112.98 L 96.23 112.89 C 96.47 108.37 96.10 103.83 96.52 99.32 Z" />
<path fill="#ffffff" d=" M 119.83 99.98 L 121.36 99.45 L 120.83 101.88 L 122.51 100.06 C 121.50 102.96 124.23 105.24 125.36 107.64 C 124.95 108.46 124.54 109.28 124.12 110.10 C 122.55 106.79 121.23 103.37 119.83 99.98 Z" />
<path fill="#020202" d=" M 56.17 101.30 C 60.61 100.50 65.16 100.94 69.65 100.93 C 68.92 102.17 67.81 102.80 66.34 102.82 C 66.31 105.88 64.30 112.25 69.47 111.48 C 69.31 114.37 66.43 113.18 64.56 113.28 C 64.15 109.71 64.25 106.11 64.37 102.52 C 63.09 102.51 61.82 102.50 60.55 102.49 C 60.33 106.16 61.46 110.69 58.26 113.42 C 57.66 113.38 56.46 113.30 55.85 113.26 C 58.39 110.04 59.30 105.93 58.57 101.90 C 57.41 103.18 56.31 104.52 55.11 105.78 C 52.98 104.93 54.46 101.74 56.17 101.30 Z" />
<path fill="#ffffff" d=" M 78.21 100.99 C 78.87 101.68 78.87 101.68 78.21 100.99 Z" />
<path fill="#ffffff" d=" M 97.76 100.24 C 100.57 103.06 99.63 108.09 97.86 111.27 C 97.76 107.60 97.69 103.92 97.76 100.24 Z" />
<path fill="#ffffff" d=" M 100.92 104.88 C 100.19 104.03 100.12 101.53 101.53 101.47 C 102.13 102.34 102.35 104.84 100.92 104.88 Z" />
<path fill="#ffffff" d=" M 102.88 101.15 C 104.25 100.64 104.72 101.10 104.29 102.52 C 102.91 103.03 102.44 102.57 102.88 101.15 Z" />
<path fill="#ffffff" d=" M 36.86 102.85 C 37.08 102.98 37.53 103.25 37.75 103.38 C 39.03 105.59 35.83 107.80 35.13 109.89 C 33.92 107.42 35.97 105.04 36.86 102.85 Z" />
<path fill="#ffffff" d=" M 37.26 126.52 C 38.71 122.05 39.94 117.49 42.19 113.34 C 42.46 114.39 43.01 116.48 43.28 117.53 C 42.88 118.40 42.46 119.27 42.04 120.14 L 41.92 117.76 C 40.98 122.32 38.49 126.62 39.41 131.43 C 37.84 129.17 35.64 126.98 35.70 124.02 C 35.31 120.63 37.18 117.65 39.01 114.99 C 39.35 114.56 40.03 113.72 40.37 113.30 C 38.78 117.55 37.53 121.96 37.26 126.52 Z" />
<path fill="#ffffff" d=" M 110.07 122.94 C 113.09 120.73 114.68 117.37 115.28 113.76 C 115.41 114.69 115.65 116.56 115.77 117.49 L 115.42 117.03 C 114.63 119.35 113.23 121.50 113.12 124.01 C 112.36 123.75 110.84 123.21 110.07 122.94 Z" />
<path fill="#ffffff" d=" M 116.57 117.80 C 116.92 116.04 117.34 114.30 117.82 112.58 C 118.18 114.59 119.41 116.88 117.55 118.48 C 117.67 120.63 116.25 122.23 115.00 123.79 C 114.57 123.23 114.15 122.67 113.73 122.11 C 115.60 121.25 115.84 119.29 115.77 117.49 L 116.57 117.80 Z" />
<path fill="#020202" d=" M 45.14 115.20 C 45.34 115.15 45.75 115.06 45.95 115.02 C 46.47 118.62 49.15 121.11 52.31 122.59 C 51.75 122.93 50.65 123.62 50.10 123.96 C 47.97 121.39 44.82 118.90 45.14 115.20 Z" />
<path fill="#020202" d=" M 150.13 131.34 C 149.70 126.90 149.91 122.44 149.88 117.99 C 152.89 118.20 156.38 117.18 158.86 119.41 C 162.83 122.20 161.21 128.87 156.98 130.51 C 154.77 131.26 152.43 131.26 150.13 131.34 Z" />
<path fill="#020202" d=" M 165.47 117.98 C 168.49 117.99 171.53 117.85 174.51 118.44 C 172.75 120.23 170.20 119.75 167.95 119.83 C 167.95 120.76 167.95 122.61 167.95 123.54 C 169.93 123.66 172.09 123.34 173.82 124.57 C 171.87 124.91 169.91 125.06 167.95 125.17 C 167.95 126.50 167.95 127.82 167.95 129.15 C 170.03 129.06 172.10 128.99 174.18 128.96 C 174.00 129.53 173.65 130.68 173.48 131.26 C 170.83 131.22 168.18 131.22 165.54 131.24 C 165.46 126.82 165.52 122.40 165.47 117.98 Z" />
<path fill="#020202" d=" M 186.78 118.78 C 189.09 117.19 192.08 117.96 194.68 118.04 C 194.46 118.64 194.01 119.83 193.79 120.42 C 191.73 120.01 189.31 119.00 187.52 120.66 C 185.60 123.04 186.66 126.34 187.84 128.83 C 190.09 129.66 193.37 128.02 194.94 130.17 C 192.42 131.66 189.04 132.14 186.53 130.39 C 182.45 127.94 182.75 121.13 186.78 118.78 Z" />
<path fill="#020202" d=" M 197.55 121.76 C 199.34 119.48 201.75 117.32 204.90 117.76 C 211.73 117.79 212.27 129.28 206.14 131.02 C 203.64 132.05 200.36 131.53 198.73 129.23 C 196.93 127.17 197.83 124.24 197.55 121.76 Z" />
<path fill="#020202" d=" M 214.94 118.00 C 215.49 118.00 216.58 118.00 217.13 118.00 C 217.12 121.71 217.13 125.42 217.12 129.14 C 219.20 129.07 221.28 129.03 223.36 129.05 C 223.13 129.60 222.65 130.71 222.42 131.26 C 219.97 131.22 217.53 131.22 215.09 131.25 C 214.85 126.84 214.95 122.42 214.94 118.00 Z" />
<path fill="#020202" d=" M 230.19 118.15 C 232.43 117.49 235.35 117.36 236.96 119.36 C 240.74 123.47 238.16 131.99 231.93 131.48 C 224.59 132.16 223.54 119.91 230.19 118.15 Z" />
<path fill="#020202" d=" M 244.09 118.00 C 244.74 118.00 246.05 118.00 246.70 118.00 C 247.89 121.46 249.15 124.89 250.46 128.30 C 251.67 124.85 252.79 121.37 254.18 117.98 C 254.83 117.99 256.13 118.02 256.78 118.03 C 257.15 122.47 258.06 126.86 258.37 131.31 C 257.50 131.27 256.62 131.23 255.75 131.19 C 255.65 128.00 255.52 124.81 255.05 121.65 C 253.70 124.52 252.64 127.51 251.59 130.50 C 250.86 130.78 250.14 131.08 249.42 131.38 C 248.08 128.13 246.84 124.84 245.48 121.61 C 245.37 124.73 245.26 127.89 244.37 130.91 L 242.23 131.62 C 242.67 127.06 243.33 122.52 244.09 118.00 Z" />
<path fill="#020202" d=" M 262.74 128.07 C 262.73 124.71 262.78 121.35 262.73 117.98 C 265.49 118.25 268.82 117.17 271.10 119.24 C 272.17 120.85 271.18 122.51 270.58 124.06 C 271.48 125.23 273.34 126.27 272.50 127.98 C 272.28 130.07 270.00 130.48 268.46 131.30 C 266.83 131.24 265.20 131.30 263.58 131.11 C 262.37 130.56 262.87 129.11 262.74 128.07 Z" />
<path fill="#020202" d=" M 276.85 117.74 C 277.44 117.90 278.63 118.22 279.23 118.38 C 278.76 122.96 280.47 128.12 277.95 132.27 C 276.00 127.66 277.14 122.58 276.85 117.74 Z" />
<path fill="#020202" d=" M 288.20 118.33 C 289.77 117.32 291.10 117.43 291.41 119.45 C 292.74 123.44 294.39 127.30 295.82 131.26 C 294.82 131.24 293.82 131.22 292.82 131.20 C 292.55 129.98 292.28 128.76 292.02 127.53 C 290.39 127.52 288.76 127.44 287.14 127.59 C 286.47 128.77 285.93 130.02 285.38 131.25 C 284.85 131.26 283.80 131.29 283.27 131.31 C 284.66 126.89 286.29 122.55 288.20 118.33 Z" />
<path fill="#ffffff" d=" M 265.58 119.41 C 266.99 119.98 269.26 120.01 269.32 122.05 C 269.11 124.09 266.87 123.46 265.48 123.84 C 265.50 122.36 265.53 120.89 265.58 119.41 Z" />
<path fill="#ffffff" d=" M 152.13 119.61 C 153.68 119.91 155.23 120.23 156.79 120.53 C 157.37 121.31 157.95 122.09 158.54 122.88 C 158.42 124.92 158.65 127.33 156.77 128.69 C 155.24 129.09 153.65 129.13 152.08 129.29 C 152.05 126.06 152.04 122.84 152.13 119.61 Z" />
<path fill="#ffffff" d=" M 201.17 128.64 C 199.71 125.84 199.36 122.10 201.95 119.84 C 203.53 119.53 205.09 120.16 206.63 120.43 C 207.93 122.89 208.75 126.27 206.70 128.57 C 205.07 130.10 202.99 129.11 201.17 128.64 Z" />
<path fill="#ffffff" d=" M 229.53 128.66 C 227.89 125.87 227.28 121.19 230.96 119.81 C 235.90 118.42 237.77 126.04 234.66 128.70 C 233.15 130.19 231.23 129.06 229.53 128.66 Z" />
<path fill="#ffffff" d=" M 287.56 125.95 C 288.12 124.27 288.64 122.58 289.21 120.91 C 289.90 122.57 290.59 124.25 291.28 125.92 C 290.35 125.93 288.49 125.94 287.56 125.95 Z" />
<path fill="#ffffff" d=" M 108.88 125.63 C 111.90 124.66 115.31 125.11 117.96 123.06 C 118.39 124.62 118.84 126.18 119.32 127.74 C 118.63 127.67 117.26 127.52 116.57 127.45 C 116.13 128.22 115.68 128.99 115.22 129.75 C 113.98 127.28 111.32 126.39 108.88 125.63 Z" />
<path fill="#ffffff" d=" M 265.58 124.79 C 266.99 125.12 268.40 125.48 269.80 125.89 C 269.81 126.65 269.83 128.17 269.83 128.93 C 268.36 129.02 266.90 129.10 265.43 129.17 C 265.47 127.71 265.52 126.25 265.58 124.79 Z" />
<path fill="#ffffff" d=" M 50.21 127.84 C 50.10 127.59 49.86 127.10 49.75 126.85 C 54.30 126.20 58.63 127.78 62.86 129.20 L 62.70 130.20 C 63.43 130.31 64.89 130.55 65.62 130.67 C 61.70 132.19 57.50 131.58 53.43 131.39 C 57.26 133.13 61.52 132.88 65.60 133.47 C 62.34 134.56 58.63 135.27 55.39 133.70 C 52.02 132.29 48.67 129.40 44.78 131.29 C 45.66 129.38 46.97 128.36 48.71 128.22 C 53.55 129.31 58.35 131.36 63.41 130.83 C 59.15 129.27 54.69 128.44 50.21 127.84 Z" />
<path fill="#ffffff" d=" M 103.12 130.21 L 103.63 129.67 L 104.57 130.05 L 104.66 130.97 C 104.30 130.95 103.57 130.90 103.21 130.88 L 103.12 130.21 Z" />
<path fill="#ffffff" d=" M 94.15 133.75 C 97.29 132.49 100.95 133.64 103.89 131.83 C 104.56 131.65 105.92 131.30 106.60 131.12 L 106.86 132.65 C 102.95 134.83 98.40 135.08 94.15 133.75 Z" />
<path fill="#020202" d=" M 86.33 134.19 C 93.44 134.73 100.08 138.13 106.48 141.13 C 106.86 139.77 107.27 138.43 107.71 137.10 C 110.16 137.09 112.73 136.91 114.75 138.56 C 116.84 138.52 119.41 138.05 120.79 140.09 C 121.79 143.43 121.11 147.02 121.08 150.45 C 120.60 150.02 120.12 149.59 119.64 149.16 C 119.91 147.23 120.08 145.30 120.16 143.36 C 115.61 146.00 110.55 143.85 106.11 142.17 C 99.66 139.29 93.09 136.53 86.18 134.96 C 86.21 134.77 86.29 134.38 86.33 134.19 Z" />
<path fill="#020202" d=" M 52.88 141.37 C 58.37 138.49 64.18 136.08 70.22 134.64 L 70.27 135.21 C 68.44 137.13 65.27 137.05 62.94 138.10 C 63.79 138.56 64.64 139.01 65.49 139.46 L 64.42 139.97 L 64.83 142.22 L 63.82 144.48 C 63.84 143.48 63.88 141.49 63.90 140.50 C 63.22 142.16 62.64 143.87 61.68 145.40 C 62.77 145.44 64.95 145.51 66.04 145.54 C 58.13 148.42 50.41 154.37 41.56 152.38 C 37.01 150.58 38.85 144.84 38.61 141.08 C 38.96 138.03 42.74 138.42 44.97 138.57 C 47.07 136.81 49.79 137.10 52.33 137.15 C 52.57 138.55 52.74 139.96 52.88 141.37 Z" />
<path fill="#020202" d=" M 72.83 137.17 C 74.58 136.32 76.54 136.24 78.44 136.04 C 78.43 137.24 78.78 138.23 79.49 139.01 C 79.55 138.14 79.68 136.42 79.75 135.56 C 81.22 135.93 82.72 136.17 84.24 136.28 C 84.23 137.72 84.24 139.17 84.35 140.61 C 80.27 138.14 75.36 140.83 70.95 140.73 C 70.84 141.22 70.62 142.19 70.51 142.67 C 75.25 141.51 80.19 141.35 85.03 141.84 C 92.30 142.92 98.76 146.68 105.59 149.15 C 105.03 149.51 104.47 149.87 103.92 150.22 C 99.27 147.67 94.24 145.99 89.39 143.91 C 88.25 144.06 87.13 144.29 86.01 144.56 C 89.36 144.93 89.14 148.14 87.85 150.24 C 86.72 150.21 85.60 150.19 84.48 150.17 C 84.30 149.49 83.96 148.12 83.79 147.44 C 85.07 147.55 88.73 150.26 87.27 147.24 C 87.19 144.10 82.88 145.85 80.99 145.52 C 82.88 146.81 81.81 148.41 81.25 149.79 L 80.12 146.32 C 78.34 147.89 77.52 150.42 79.26 152.33 C 80.52 151.55 81.82 150.84 83.15 150.19 C 82.33 151.47 81.37 152.63 80.26 153.67 C 79.15 153.06 78.03 152.44 76.92 151.83 C 76.87 149.56 77.55 147.45 78.71 145.52 C 76.68 145.40 74.61 145.22 72.62 145.76 C 72.45 146.63 72.11 148.37 71.94 149.24 C 72.79 148.71 74.48 147.65 75.32 147.12 C 75.40 148.20 75.47 149.29 75.53 150.38 C 72.80 150.63 70.55 149.29 70.41 146.41 C 72.36 145.06 74.58 143.27 77.09 144.26 C 79.97 145.21 82.89 144.04 85.80 144.08 C 85.69 143.57 85.54 142.97 84.92 142.92 C 78.85 141.83 72.58 142.96 66.99 145.46 C 66.46 144.99 65.93 144.51 65.40 144.03 C 66.63 143.81 69.09 143.37 70.32 143.15 C 70.14 142.31 69.95 141.47 69.75 140.63 L 67.28 141.03 C 67.74 140.21 68.65 138.56 69.11 137.74 C 70.36 137.59 71.59 137.39 72.83 137.17 Z" />
<path fill="#ffffff" d=" M 75.84 137.32 C 79.21 137.36 74.44 140.36 75.84 137.32 Z" />
<path fill="#020202" d=" M 87.19 141.49 C 85.20 140.29 84.03 138.41 85.76 136.32 C 86.29 136.53 87.35 136.95 87.88 137.16 L 86.86 139.94 C 87.63 139.61 89.16 138.96 89.92 138.63 C 90.22 139.22 90.82 140.41 91.12 141.00 L 91.47 137.58 C 93.79 138.40 94.14 140.50 94.07 142.73 C 93.42 142.61 92.12 142.39 91.48 142.28 C 90.93 141.48 89.83 139.88 89.29 139.08 C 88.58 139.87 87.88 140.67 87.19 141.49 Z" />
<path fill="#ffffff" d=" M 45.57 138.94 C 47.80 138.20 50.17 137.85 52.37 138.86 C 51.42 142.68 47.55 140.79 45.57 138.94 Z" />
<path fill="#ffffff" d=" M 71.95 138.29 C 75.26 138.35 70.47 141.40 71.95 138.29 Z" />
<path fill="#ffffff" d=" M 108.24 138.19 C 110.22 138.02 112.18 138.32 114.00 139.12 C 112.29 139.95 110.45 142.06 108.38 140.92 C 108.34 140.24 108.27 138.87 108.24 138.19 Z" />
<path fill="#ffffff" d=" M 51.09 143.12 C 54.80 141.90 58.33 140.23 61.77 138.40 C 62.54 138.97 63.30 139.54 64.05 140.13 L 60.98 140.27 C 61.14 141.47 61.28 142.68 61.43 143.89 L 59.85 143.74 C 59.74 142.91 59.53 141.27 59.42 140.44 C 58.56 141.72 58.28 143.20 58.30 144.72 C 57.99 144.60 57.38 144.35 57.07 144.23 L 57.04 146.61 L 58.79 145.17 C 59.37 145.74 59.94 146.31 60.53 146.89 C 55.96 148.41 51.61 150.63 46.88 151.64 C 44.56 152.17 42.03 151.54 40.37 149.81 C 39.47 147.81 39.74 145.55 39.51 143.43 C 43.24 145.42 47.36 144.57 51.09 143.12 Z" />
<path fill="#020202" d=" M 95.30 138.60 C 95.51 139.00 95.92 139.81 96.13 140.22 C 98.34 139.82 100.13 141.25 101.84 142.39 L 104.01 141.88 C 103.55 142.35 102.65 143.30 102.19 143.77 L 104.94 145.26 C 102.39 145.74 99.84 145.66 97.30 145.01 C 98.51 144.13 99.74 143.28 100.82 142.24 C 98.65 142.67 96.52 144.11 94.26 143.15 C 94.52 142.01 95.04 139.74 95.30 138.60 Z" />
<path fill="#ffffff" d=" M 40.08 142.09 C 39.67 140.33 40.34 139.51 42.09 139.62 C 44.90 139.60 47.19 141.71 49.60 142.93 C 46.43 143.03 42.97 143.78 40.08 142.09 Z" />
<path fill="#020202" d=" M 66.38 140.18 C 67.06 140.86 67.06 140.86 66.38 140.18 Z" />
<path fill="#ffffff" d=" M 92.00 139.91 C 92.67 140.53 92.67 140.53 92.00 139.91 Z" />
<path fill="#ffffff" d=" M 110.32 142.62 C 113.12 141.60 115.91 138.60 119.12 139.92 C 119.17 140.49 119.28 141.64 119.33 142.21 C 116.59 143.85 113.27 143.03 110.32 142.62 Z" />
<path fill="#020202" d=" M 53.90 147.07 C 54.08 145.14 54.08 143.03 56.16 142.13 C 56.32 143.17 56.65 145.26 56.81 146.30 C 56.20 146.66 54.97 147.38 54.36 147.74 C 53.63 147.29 52.89 146.85 52.15 146.41 C 52.16 146.11 52.17 145.51 52.17 145.20 C 52.61 145.67 53.47 146.60 53.90 147.07 Z" />
<path fill="#020202" d=" M 106.06 143.83 C 107.94 144.59 110.36 145.08 110.17 147.68 C 108.96 147.69 107.75 147.71 106.54 147.75 C 106.39 146.44 106.23 145.13 106.06 143.83 Z" />
<path fill="#020202" d=" M 41.70 145.94 C 43.04 146.47 44.44 146.26 45.81 146.00 C 45.57 147.38 45.41 148.77 45.26 150.17 C 44.10 149.83 42.94 149.53 41.77 149.24 C 41.75 148.42 41.72 146.76 41.70 145.94 Z" />
<path fill="#020202" d=" M 46.51 145.80 L 48.87 145.24 L 48.07 146.85 L 49.31 147.58 C 49.47 146.74 49.79 145.04 49.95 144.20 C 50.58 145.82 51.20 147.45 51.81 149.09 C 51.12 148.86 49.73 148.39 49.04 148.16 C 49.17 148.55 49.42 149.34 49.55 149.74 C 48.81 149.71 47.32 149.64 46.58 149.61 C 46.56 148.66 46.52 146.76 46.51 145.80 Z" />
<path fill="#020202" d=" M 110.32 145.17 C 111.18 145.47 112.91 146.08 113.77 146.39 C 114.04 147.15 114.57 148.69 114.84 149.45 C 114.80 148.56 114.72 146.76 114.68 145.87 C 115.19 146.15 116.22 146.73 116.74 147.01 C 117.08 146.50 117.75 145.48 118.09 144.96 C 118.12 146.00 118.19 148.09 118.22 149.13 C 117.55 149.30 116.20 149.66 115.53 149.84 C 115.05 149.71 114.09 149.45 113.62 149.33 C 113.35 149.08 112.82 148.59 112.55 148.35 L 112.11 148.52 L 111.66 148.86 L 111.11 148.98 C 110.91 148.02 110.52 146.12 110.32 145.17 Z" />
<path fill="#020202" d=" M 105.92 151.14 C 105.84 150.68 105.67 149.76 105.59 149.30 C 108.65 150.24 111.66 151.89 114.94 151.76 C 116.95 151.42 118.86 150.68 120.86 150.28 C 120.13 150.87 118.68 152.04 117.95 152.62 C 113.86 152.99 109.78 152.57 105.92 151.14 Z" />
</svg>
